<?xml version="1.0" encoding="UTF-8" standalone="no"?><!DOCTYPE svg PUBLIC "-//W3C//DTD SVG 1.1//EN" "http://www.w3.org/Graphics/SVG/1.1/DTD/svg11.dtd"><svg width="100%" height="100%" viewBox="0 0 742 998" version="1.1" xmlns="http://www.w3.org/2000/svg" xmlns:xlink="http://www.w3.org/1999/xlink" xml:space="preserve" xmlns:serif="http://www.serif.com/" style="fill-rule:evenodd;clip-rule:evenodd;stroke-linejoin:round;stroke-miterlimit:2;"><rect id="Página-3" serif:id="Página 3" x="0" y="0" width="741.217" height="997.792" style="fill:none;"/><g id="Capa-1" serif:id="Capa 1"><path d="M416.342,136.729l-197.437,0c-31.979,0 -57.9,25.921 -57.9,57.9l0,631.438c0,31.979 25.921,57.9 57.9,57.9l254.004,0c31.975,0 57.9,-25.921 57.9,-57.9l0,-599.671c21.6,-13.683 35.95,-37.779 35.95,-65.242c0,-42.633 -34.558,-77.192 -77.192,-77.192c-34.096,0 -63.004,22.108 -73.225,52.767Z" style="fill:url(#_Linear1);fill-rule:nonzero;"/><path d="M218.903,140.54c-29.825,0 -54.092,24.267 -54.092,54.092l0,631.438c0,29.825 24.267,54.092 54.092,54.092l254.004,0c29.825,0 54.092,-24.267 54.092,-54.092l0,-601.767l1.771,-1.125c21.404,-13.558 34.183,-36.742 34.183,-62.021c0,-40.467 -32.921,-73.383 -73.387,-73.383c-31.633,0 -59.608,20.158 -69.613,50.163l-0.867,2.604l-200.183,0Zm254.004,747.238l-254.004,0c-34.025,0 -61.708,-27.679 -61.708,-61.708l0,-631.438c0,-34.029 27.683,-61.713 61.708,-61.713l194.738,0c11.762,-31.679 41.929,-52.767 75.925,-52.767c44.667,0 81.008,36.338 81.008,81.004c0,27.2 -13.4,52.2 -35.954,67.308l0,597.604c0,34.029 -27.683,61.708 -61.712,61.708" style="fill-rule:nonzero;"/><path d="M283.2,251.852l-10.2,7.333c-1.667,1.2 -3.2,1.667 -5,1.667c-1.6,0 -3.267,-0.4 -4.933,-1.6l-9.6,-6.867c-1.467,-1.067 -2.2,-2 -2.2,-3.867l0,-4.2c0,-1.733 0.867,-2.6 2.333,-2.6c0.933,0 1.733,0.267 3.2,1.333l10.133,7.467l10.6,-7.867c2.733,-2 5.867,-1.133 7.533,1.667c1.467,2.467 0.733,5.667 -1.867,7.533" style="fill-rule:nonzero;"/><path d="M333.96,251.852l-10.2,7.333c-1.667,1.2 -3.2,1.667 -5,1.667c-1.6,0 -3.267,-0.4 -4.933,-1.6l-9.6,-6.867c-1.467,-1.067 -2.2,-2 -2.2,-3.867l0,-4.2c0,-1.733 0.867,-2.6 2.333,-2.6c0.933,0 1.733,0.267 3.2,1.333l10.133,7.467l10.6,-7.867c2.733,-2 5.867,-1.133 7.533,1.667c1.467,2.467 0.733,5.667 -1.867,7.533" style="fill-rule:nonzero;"/></g><defs><linearGradient id="_Linear1" x1="0" y1="0" x2="1" y2="0" gradientUnits="userSpaceOnUse" gradientTransform="matrix(0,-858.897654,858.897654,-0,363.882732,858.666367)"><stop offset="0" style="stop-color:#f4e603;stop-opacity:1"/><stop offset="1" style="stop-color:#faef80;stop-opacity:1"/></linearGradient></defs></svg>