<?xml version="1.0" encoding="UTF-8" standalone="no"?><!DOCTYPE svg PUBLIC "-//W3C//DTD SVG 1.1//EN" "http://www.w3.org/Graphics/SVG/1.1/DTD/svg11.dtd"><svg width="100%" height="100%" viewBox="0 0 763 824" version="1.1" xmlns="http://www.w3.org/2000/svg" xmlns:xlink="http://www.w3.org/1999/xlink" xml:space="preserve" xmlns:serif="http://www.serif.com/" style="fill-rule:evenodd;clip-rule:evenodd;stroke-linejoin:round;stroke-miterlimit:2;"><rect id="Página-5" serif:id="Página 5" x="0" y="0" width="762.6" height="823.637" style="fill:none;"/><g id="Capa-1" serif:id="Capa 1"><path d="M582.742,143.579c-0.608,-0.008 -1.221,-0.021 -1.833,-0.021l-241.004,0c-130.475,0 -236.246,106.162 -236.246,237.125l0,286.95c0,34.446 27.821,62.375 62.142,62.375l459.988,0c34.317,0 62.142,-27.929 62.142,-62.375l0,-416.658c0,-8.646 -1.025,-17.05 -2.946,-25.108c15.612,-14.092 24.542,-35.5 21.404,-58.854c-3.95,-29.35 -27.533,-52.975 -56.904,-56.8c-2.996,-0.392 -5.962,-0.579 -8.883,-0.579c-24.833,-0.004 -46.467,13.688 -57.858,33.946Z" style="fill:url(#_Linear1);fill-rule:nonzero;"/><path d="M339.904,147.031c-128.35,0 -232.771,104.817 -232.771,233.654l0,286.95c0,32.479 26.317,58.9 58.667,58.9l459.988,0c32.346,0 58.667,-26.421 58.667,-58.9l0,-416.658c0,-8.196 -0.962,-16.371 -2.85,-24.304l-0.479,-2.004l1.529,-1.379c15.521,-14.008 23.104,-34.871 20.287,-55.812c-3.771,-28.046 -25.937,-50.179 -53.908,-53.821c-25.746,-3.363 -50.575,9.058 -63.263,31.629l-1.017,1.804l-3.846,-0.058l-241.004,0Zm285.883,586.45l-459.988,0c-36.179,0 -65.617,-29.538 -65.617,-65.846l0,-286.95c0,-132.671 107.538,-240.604 239.721,-240.604l240.854,0c14.371,-23.904 41.3,-36.946 69.175,-33.317c31.075,4.046 55.708,28.633 59.896,59.788c3.029,22.529 -4.812,44.983 -21.012,60.496c1.717,7.833 2.583,15.875 2.583,23.929l0,416.658c0,36.308 -29.433,65.846 -65.613,65.846" style="fill-rule:nonzero;"/><path d="M318.697,273.35l0,-9.779c0,-9.558 6.517,-14.7 17.671,-14.7c11.225,0 17.163,4.854 17.163,14.196l0,5.142c0,2.246 -1.013,3.333 -3.183,3.333l-20.062,0l0,3.037c0,3.55 1.808,5.146 6.446,5.146c3.621,0 5.358,-1.088 5.358,-3.188l0,-0.292c0,-0.867 0.292,-1.229 1.233,-1.229l8.325,0c0.871,0 1.379,0.504 1.379,1.446l0,0.579c0,6.883 -5.725,10.429 -16.296,10.429c-11.517,0 -18.033,-4.85 -18.033,-14.121" style="fill-rule:nonzero;"/><path d="M369.004,273.35l0,-9.779c0,-9.558 6.517,-14.7 17.671,-14.7c11.225,0 17.163,4.854 17.163,14.196l0,5.142c0,2.246 -1.013,3.333 -3.183,3.333l-20.062,0l0,3.037c0,3.55 1.808,5.146 6.446,5.146c3.621,0 5.358,-1.088 5.358,-3.188l0,-0.292c0,-0.867 0.292,-1.229 1.233,-1.229l8.325,0c0.871,0 1.379,0.504 1.379,1.446l0,0.579c0,6.883 -5.721,10.429 -16.296,10.429c-11.517,0 -18.033,-4.85 -18.033,-14.121" style="fill-rule:nonzero;"/></g><defs><linearGradient id="_Linear1" x1="0" y1="0" x2="1" y2="0" gradientUnits="userSpaceOnUse" gradientTransform="matrix(0,-593.206914,593.206914,-0,405.334854,747.720177)"><stop offset="0" style="stop-color:#3bd5af;stop-opacity:1"/><stop offset="1" style="stop-color:#86e3c6;stop-opacity:1"/><stop offset="1" style="stop-color:#86e3c6;stop-opacity:1"/></linearGradient></defs></svg>