<?xml version="1.0" encoding="UTF-8" standalone="no"?><!DOCTYPE svg PUBLIC "-//W3C//DTD SVG 1.1//EN" "http://www.w3.org/Graphics/SVG/1.1/DTD/svg11.dtd"><svg width="100%" height="100%" viewBox="0 0 841 857" version="1.1" xmlns="http://www.w3.org/2000/svg" xmlns:xlink="http://www.w3.org/1999/xlink" xml:space="preserve" xmlns:serif="http://www.serif.com/" style="fill-rule:evenodd;clip-rule:evenodd;stroke-linejoin:round;stroke-miterlimit:2;"><rect id="Página-4" serif:id="Página 4" x="0" y="0" width="840.996" height="856.812" style="fill:none;"/><g id="Capa-1" serif:id="Capa 1"><g><path d="M611.726,331.142c-5.933,0 -10,-0.4 -10.513,-0.45l0.779,-7.579c0.367,0.037 37.158,3.596 53.421,-11.821c5.45,-5.167 7.9,-11.779 7.492,-20.225l7.612,-0.367c0.517,10.65 -2.808,19.442 -9.871,26.133c-13.004,12.317 -35.638,14.308 -48.921,14.308" style="fill-rule:nonzero;"/><path d="M664.462,274.282c-3.712,0 -6.733,3.021 -6.733,6.733c0,3.713 3.021,6.733 6.733,6.733c3.712,0 6.733,-3.021 6.733,-6.733c0,-3.712 -3.021,-6.733 -6.733,-6.733m0,20.579c-7.633,0 -13.846,-6.213 -13.846,-13.846c0,-7.633 6.212,-13.842 13.846,-13.842c7.633,0 13.846,6.208 13.846,13.842c0,7.633 -6.212,13.846 -13.846,13.846" style="fill-rule:nonzero;"/><path d="M424.304,198.446l-224.758,72.967c-16.971,5.517 -29.767,19.688 -33.475,37.154l-49.183,231.117c-3.754,17.467 2.146,35.621 15.433,47.571l175.542,158.154c13.292,11.987 31.946,15.933 48.912,10.417l57.342,-18.617c7.812,33.787 38.113,58.987 74.267,58.987c42.133,0 76.3,-34.163 76.3,-76.262c0,-10.492 -2.108,-20.525 -5.975,-29.604l22.825,-7.433c17.008,-5.512 29.767,-19.688 33.479,-37.154l49.217,-231.117c3.717,-17.504 -2.183,-35.621 -15.433,-47.575l-175.542,-158.188c-9.338,-8.396 -21.321,-12.858 -33.521,-12.858c-5.167,0 -10.371,0.8 -15.429,2.442Z" style="fill:url(#_Linear1);fill-rule:nonzero;"/><path d="M416.89,732.302l0.938,4.05c7.629,32.992 36.646,56.033 70.554,56.033c39.975,0 72.492,-32.5 72.492,-72.45c0,-9.825 -1.908,-19.283 -5.671,-28.112l-1.633,-3.829l26.788,-8.721c15.654,-5.075 27.508,-18.229 30.929,-34.321l49.221,-231.121c3.413,-16.096 -2.05,-32.937 -14.263,-43.95l-175.542,-158.188c-12.246,-11.008 -29.579,-14.692 -45.225,-9.625l-224.758,72.967c-15.654,5.088 -27.504,18.242 -30.925,34.321l-49.183,231.121c-3.454,16.092 2.008,32.929 14.258,43.946l175.546,158.154c12.221,11.025 29.538,14.713 45.183,9.625l61.292,-19.9Zm71.492,67.704c-36.088,0 -67.158,-23.612 -76.942,-57.921l-53.488,17.362c-18.229,5.929 -38.4,1.629 -52.642,-11.213l-175.542,-158.15c-14.271,-12.833 -20.637,-32.454 -16.608,-51.204l49.179,-231.108c3.988,-18.738 17.792,-34.058 36.025,-39.988l224.762,-72.967c18.225,-5.908 38.412,-1.612 52.675,11.208l175.546,158.196c14.225,12.829 20.588,32.446 16.608,51.192l0,0.004l-49.217,231.117c-3.992,18.75 -17.796,34.071 -36.029,39.988l-18.975,6.171c3.158,8.658 4.758,17.804 4.758,27.242c0,44.15 -35.938,80.071 -80.112,80.071" style="fill-rule:nonzero;"/><path d="M256.097,386.004l0,-19.725l-2.033,-2.096c-1.479,-1.479 -1.604,-3.45 -0.125,-4.871l1.912,-1.846c1.479,-1.479 3.387,-1.421 4.867,0.058l3.271,3.267c1.479,-2.712 3.821,-4.25 6.842,-4.25l0.8,0c2.775,0 4.254,1.292 4.254,3.575l0,2.033c0,2.158 -1.421,3.45 -3.7,3.45l-1.354,0c-3.208,0 -4.808,1.729 -4.808,5.054l0,15.35c0,1.417 -0.863,2.279 -2.283,2.279l-5.363,0c-1.417,0 -2.279,-0.863 -2.279,-2.279" style="fill-rule:nonzero;"/><path d="M222.481,386.004l0,-19.725l-2.033,-2.096c-1.479,-1.479 -1.604,-3.45 -0.125,-4.871l1.912,-1.846c1.479,-1.479 3.388,-1.421 4.867,0.058l3.271,3.267c1.479,-2.712 3.821,-4.25 6.842,-4.25l0.8,0c2.775,0 4.254,1.292 4.254,3.575l0,2.033c0,2.158 -1.421,3.45 -3.7,3.45l-1.354,0c-3.208,0 -4.808,1.729 -4.808,5.054l0,15.35c0,1.417 -0.862,2.279 -2.283,2.279l-5.363,0c-1.417,0 -2.279,-0.863 -2.279,-2.279" style="fill-rule:nonzero;"/></g></g><defs><linearGradient id="_Linear1" x1="0" y1="0" x2="1" y2="0" gradientUnits="userSpaceOnUse" gradientTransform="matrix(0,-554.621124,554.621124,-0,390.549946,833.512099)"><stop offset="0" style="stop-color:#0f47bb;stop-opacity:1"/><stop offset="1" style="stop-color:#4f68c9;stop-opacity:1"/></linearGradient></defs></svg>