<?xml version="1.0" encoding="UTF-8" standalone="no"?><!DOCTYPE svg PUBLIC "-//W3C//DTD SVG 1.1//EN" "http://www.w3.org/Graphics/SVG/1.1/DTD/svg11.dtd"><svg width="100%" height="100%" viewBox="0 0 776 789" version="1.1" xmlns="http://www.w3.org/2000/svg" xmlns:xlink="http://www.w3.org/1999/xlink" xml:space="preserve" xmlns:serif="http://www.serif.com/" style="fill-rule:evenodd;clip-rule:evenodd;stroke-linejoin:round;stroke-miterlimit:2;"><rect id="Página-2" serif:id="Página 2" x="0" y="0" width="775.938" height="788.579" style="fill:none;"/><g id="Capa-1" serif:id="Capa 1"><path d="M69.846,396.217c0,171.096 138.738,309.829 309.871,309.829c171.1,0 309.829,-138.733 309.829,-309.829c0,-31.675 -4.746,-62.242 -13.596,-91.008c26.504,-12.179 44.929,-39.029 44.929,-70.171c0,-42.708 -34.625,-77.296 -77.296,-77.296c-18,0 -34.55,6.129 -47.688,16.471c-55.804,-54.392 -132.104,-87.867 -216.179,-87.867c-171.133,0 -309.871,138.733 -309.871,309.871Z" style="fill:url(#_Linear1);fill-rule:nonzero;"/><path d="M379.716,90.156c-168.763,0 -306.058,137.296 -306.058,306.058c0,168.742 137.296,306.021 306.058,306.021c168.742,0 306.021,-137.279 306.021,-306.021c0,-30.675 -4.521,-60.917 -13.429,-89.888l-0.983,-3.188l3.033,-1.392c25.946,-11.925 42.708,-38.108 42.708,-66.708c0,-40.521 -32.963,-73.488 -73.483,-73.488c-16.646,0 -32.321,5.417 -45.329,15.654l-2.625,2.067l-2.387,-2.329c-57.425,-55.967 -133.254,-86.788 -213.525,-86.788m0,619.7c-172.963,0 -313.679,-140.7 -313.679,-313.642c0,-172.963 140.717,-313.679 313.679,-313.679c81.175,0 157.921,30.758 216.483,86.675c13.821,-10.008 30.129,-15.279 47.383,-15.279c44.721,0 81.104,36.387 81.104,81.108c0,30.45 -17.221,58.425 -44.15,72.179c8.508,28.738 12.821,58.662 12.821,88.996c0,172.942 -140.7,313.642 -313.642,313.642" style="fill-rule:nonzero;"/><path d="M400.511,245.707l0,-0.846c0,-6.583 4.171,-9.779 13.233,-9.779c2.542,0 4.825,0.258 6.846,0.783l0,-4.433c0,-2.412 -1.371,-3.454 -4.562,-3.454c-3.129,0 -4.5,0.846 -4.5,2.8l0,0.458c0,0.783 -0.392,1.237 -1.238,1.237l-7.171,0c-0.913,0 -1.371,-0.521 -1.371,-1.433l0,-0.521c0,-6.325 5.021,-9.779 14.279,-9.779c9.646,0 14.925,3.846 14.925,10.95l0,13.171l2.154,2.15c1.562,1.562 1.692,3.583 0.129,5.15l-2.021,2.021c-1.567,1.562 -3.521,1.433 -5.083,-0.129l-2.871,-2.871c-2.083,2.675 -5.542,4.304 -10.038,4.304c-7.887,0 -12.712,-3.521 -12.712,-9.779" style="fill-rule:nonzero;"/><path d="M356.595,245.707l0,-0.846c0,-6.583 4.171,-9.779 13.233,-9.779c2.542,0 4.825,0.258 6.846,0.783l0,-4.433c0,-2.412 -1.371,-3.454 -4.562,-3.454c-3.129,0 -4.5,0.846 -4.5,2.8l0,0.458c0,0.783 -0.392,1.237 -1.238,1.237l-7.171,0c-0.913,0 -1.371,-0.521 -1.371,-1.433l0,-0.521c0,-6.325 5.021,-9.779 14.279,-9.779c9.646,0 14.925,3.846 14.925,10.95l0,13.171l2.154,2.15c1.562,1.562 1.692,3.583 0.129,5.15l-2.021,2.021c-1.567,1.562 -3.521,1.433 -5.083,-0.129l-2.871,-2.871c-2.083,2.675 -5.542,4.304 -10.038,4.304c-7.887,0 -12.712,-3.521 -12.712,-9.779" style="fill-rule:nonzero;"/></g><defs><linearGradient id="_Linear1" x1="0" y1="0" x2="1" y2="0" gradientUnits="userSpaceOnUse" gradientTransform="matrix(0,-690.558561,690.558561,-0,395.363776,731.433993)"><stop offset="0" style="stop-color:#f9354a;stop-opacity:1"/><stop offset="1" style="stop-color:#fd807c;stop-opacity:1"/></linearGradient></defs></svg>